<svg data-v-423bf9ae="" xmlns="http://www.w3.org/2000/svg" viewBox="0 0 435 90" class="iconLeft"><!----><!----><!----><g data-v-423bf9ae="" id="acf4a59f-a0f3-4a96-98ae-3a5c4dc56542" fill="black" transform="matrix(4.258386611938477,0,0,4.258386611938477,117.5135726928711,5.202383041381836)"><path d="M10.74 5.84L10.74 5.84Q12.14 5.84 12.97 6.68L12.97 6.68L12.97 6.68Q13.80 7.52 13.80 9.21L13.80 9.21L13.80 13.55L11.14 13.55L11.14 9.65L11.14 9.65Q11.14 8.85 10.84 8.47L10.84 8.47L10.84 8.47Q10.54 8.09 10.00 8.09L10.00 8.09L10.00 8.09Q9.39 8.09 9.03 8.51L9.03 8.51L9.03 8.51Q8.67 8.93 8.67 9.79L8.67 9.79L8.67 13.55L6.01 13.55L6.01 9.65L6.01 9.65Q6.01 8.09 4.86 8.09L4.86 8.09L4.86 8.09Q4.24 8.09 3.88 8.51L3.88 8.51L3.88 8.51Q3.51 8.93 3.51 9.79L3.51 9.79L3.51 13.55L0.85 13.55L0.85 5.96L3.39 5.96L3.39 6.76L3.39 6.76Q3.81 6.30 4.39 6.07L4.39 6.07L4.39 6.07Q4.97 5.84 5.66 5.84L5.66 5.84L5.66 5.84Q6.45 5.84 7.08 6.13L7.08 6.13L7.08 6.13Q7.71 6.43 8.11 7.03L8.11 7.03L8.11 7.03Q8.55 6.45 9.24 6.15L9.24 6.15L9.24 6.15Q9.93 5.84 10.74 5.84L10.74 5.84ZM20.94 5.96L23.48 5.96L20.20 13.86L20.20 13.86Q19.63 15.26 18.80 15.83L18.80 15.83L18.80 15.83Q17.98 16.39 16.79 16.39L16.79 16.39L16.79 16.39Q16.18 16.39 15.58 16.20L15.58 16.20L15.58 16.20Q14.97 16.02 14.59 15.71L14.59 15.71L15.51 13.85L15.51 13.85Q15.74 14.06 16.05 14.17L16.05 14.17L16.05 14.17Q16.37 14.29 16.69 14.29L16.69 14.29L16.69 14.29Q17.07 14.29 17.31 14.14L17.31 14.14L17.31 14.14Q17.56 13.99 17.72 13.65L17.72 13.65L14.48 5.96L17.21 5.96L19.07 10.60L20.94 5.96ZM27.06 6.08L27.06 6.24L28.87 6.24L28.87 8.23L27.13 8.23L27.13 13.55L24.47 13.55L24.47 8.23L23.37 8.23L23.37 6.24L24.47 6.24L24.47 6.05L24.47 6.05Q24.47 4.66 25.31 3.85L25.31 3.85L25.31 3.85Q26.14 3.04 27.64 3.04L27.64 3.04L27.64 3.04Q28.14 3.04 28.62 3.14L28.62 3.14L28.62 3.14Q29.09 3.23 29.40 3.43L29.40 3.43L28.74 5.31L28.74 5.31Q28.35 5.08 27.94 5.08L27.94 5.08L27.94 5.08Q27.52 5.08 27.29 5.33L27.29 5.33L27.29 5.33Q27.06 5.59 27.06 6.08L27.06 6.08ZM29.85 13.55L29.85 5.96L32.51 5.96L32.51 13.55L29.85 13.55ZM31.18 5.12L31.18 5.12Q30.45 5.12 30.00 4.72L30.00 4.72L30.00 4.72Q29.55 4.31 29.55 3.71L29.55 3.71L29.55 3.71Q29.55 3.11 30.00 2.70L30.00 2.70L30.00 2.70Q30.45 2.30 31.18 2.30L31.18 2.30L31.18 2.30Q31.91 2.30 32.35 2.68L32.35 2.68L32.35 2.68Q32.80 3.07 32.80 3.67L32.80 3.67L32.80 3.67Q32.80 4.30 32.35 4.71L32.35 4.71L32.35 4.71Q31.91 5.12 31.18 5.12L31.18 5.12ZM39.69 5.96L42.22 5.96L39.09 13.55L36.34 13.55L33.22 5.96L35.95 5.96L37.77 10.60L39.69 5.96ZM50.67 9.77L50.67 9.77Q50.67 9.80 50.62 10.43L50.62 10.43L45.11 10.43L45.11 10.43Q45.28 11.02 45.76 11.33L45.76 11.33L45.76 11.33Q46.24 11.65 46.97 11.65L46.97 11.65L46.97 11.65Q47.52 11.65 47.92 11.49L47.92 11.49L47.92 11.49Q48.31 11.34 48.72 10.99L48.72 10.99L50.12 12.45L50.12 12.45Q49.01 13.68 46.89 13.68L46.89 13.68L46.89 13.68Q45.56 13.68 44.55 13.17L44.55 13.17L44.55 13.17Q43.54 12.67 42.99 11.77L42.99 11.77L42.99 11.77Q42.43 10.88 42.43 9.74L42.43 9.74L42.43 9.74Q42.43 8.62 42.97 7.73L42.97 7.73L42.97 7.73Q43.51 6.85 44.46 6.34L44.46 6.34L44.46 6.34Q45.42 5.84 46.61 5.84L46.61 5.84L46.61 5.84Q47.74 5.84 48.66 6.31L48.66 6.31L48.66 6.31Q49.59 6.78 50.13 7.66L50.13 7.66L50.13 7.66Q50.67 8.55 50.67 9.77L50.67 9.77ZM46.62 7.73L46.62 7.73Q46.00 7.73 45.59 8.08L45.59 8.08L45.59 8.08Q45.18 8.43 45.07 9.03L45.07 9.03L48.17 9.03L48.17 9.03Q48.06 8.43 47.65 8.08L47.65 8.08L47.65 8.08Q47.24 7.73 46.62 7.73L46.62 7.73ZM53.02 13.68L53.02 13.68Q52.35 13.68 51.88 13.23L51.88 13.23L51.88 13.23Q51.42 12.78 51.42 12.10L51.42 12.10L51.42 12.10Q51.42 11.40 51.88 10.96L51.88 10.96L51.88 10.96Q52.33 10.53 53.02 10.53L53.02 10.53L53.02 10.53Q53.72 10.53 54.17 10.96L54.17 10.96L54.17 10.96Q54.61 11.40 54.61 12.10L54.61 12.10L54.61 12.10Q54.61 12.78 54.16 13.23L54.16 13.23L54.16 13.23Q53.70 13.68 53.02 13.68L53.02 13.68ZM58.76 6.08L58.76 6.24L60.56 6.24L60.56 8.23L58.83 8.23L58.83 13.55L56.17 13.55L56.17 8.23L55.06 8.23L55.06 6.24L56.17 6.24L56.17 6.05L56.17 6.05Q56.17 4.66 57.00 3.85L57.00 3.85L57.00 3.85Q57.83 3.04 59.33 3.04L59.33 3.04L59.33 3.04Q59.84 3.04 60.31 3.14L60.31 3.14L60.31 3.14Q60.79 3.23 61.10 3.43L61.10 3.43L60.44 5.31L60.44 5.31Q60.05 5.08 59.64 5.08L59.64 5.08L59.64 5.08Q59.22 5.08 58.99 5.33L58.99 5.33L58.99 5.33Q58.76 5.59 58.76 6.08L58.76 6.08ZM71.43 5.84L71.43 5.84Q72.83 5.84 73.66 6.68L73.66 6.68L73.66 6.68Q74.49 7.52 74.49 9.21L74.49 9.21L74.49 13.55L71.83 13.55L71.83 9.65L71.83 9.65Q71.83 8.85 71.53 8.47L71.53 8.47L71.53 8.47Q71.23 8.09 70.69 8.09L70.69 8.09L70.69 8.09Q70.08 8.09 69.72 8.51L69.72 8.51L69.72 8.51Q69.36 8.93 69.36 9.79L69.36 9.79L69.36 13.55L66.70 13.55L66.70 9.65L66.70 9.65Q66.70 8.09 65.55 8.09L65.55 8.09L65.55 8.09Q64.93 8.09 64.57 8.51L64.57 8.51L64.57 8.51Q64.20 8.93 64.20 9.79L64.20 9.79L64.20 13.55L61.54 13.55L61.54 5.96L64.08 5.96L64.08 6.76L64.08 6.76Q64.50 6.30 65.08 6.07L65.08 6.07L65.08 6.07Q65.66 5.84 66.35 5.84L66.35 5.84L66.35 5.84Q67.14 5.84 67.77 6.13L67.77 6.13L67.77 6.13Q68.40 6.43 68.80 7.03L68.80 7.03L68.80 7.03Q69.24 6.45 69.93 6.15L69.93 6.15L69.93 6.15Q70.62 5.84 71.43 5.84L71.43 5.84Z"></path></g><!----><g data-v-423bf9ae="" id="4ccfd206-7b60-4a79-be32-e56ff49245dc" transform="matrix(1.260187029838562,0,0,1.260187029838562,-11.008164405822754,-17.79405403137207)" stroke="none" fill="black"><circle cx="42.692" cy="80.595" r="3.888"></circle><path d="M47.234 63.9c-2.255-2.058-3.994-8.579 2.516-10.977 6.207-2.287 13.525 12.121 1.83 15.094-12.603 3.204-18.063-19.139-6.175-27.443 31.126-21.742-3.546-40.633-.124-9.834 5.776 42.406 6.482 41.893 6.698 47.784.15 4.093-2.425 7.332-6.77 6.417-1.409-.297.298-1.566.229-1.601-1.372-.686-3.016 1.147-4.117.915 8.69 4.803 11.756-1.338 11.507-5.946-.173-3.197-5.104-47.366-5.104-48.661 0-13.264 7.972-11.663 7.286-5.489S40.145 40.573 36.486 48.12s-2.884 17.575 8.462 21.269c11.238 3.659 21.758-9.148 16.269-16.009-8.306-10.382-24.013 2.744-13.983 10.52zM38.43 27.664H21.825a1.384 1.384 0 1 1 0-2.768H38.43a1.384 1.384 0 1 1 0 2.768zM77.175 27.664H63.337a1.384 1.384 0 1 1 0-2.768h13.837a1.384 1.384 0 0 1 .001 2.768zM34.279 40.117H14.906a1.384 1.384 0 1 1 0-2.768h19.372a1.384 1.384 0 0 1 .001 2.768z"></path><path d="M84.094 40.117H55.035a1.384 1.384 0 1 1 0-2.768h29.059a1.384 1.384 0 1 1 0 2.768zM27.36 52.571H10.755a1.384 1.384 0 1 1 0-2.768H27.36a1.384 1.384 0 1 1 0 2.768zM88.245 52.571H67.489a1.384 1.384 0 1 1 0-2.768h20.756a1.384 1.384 0 1 1 0 2.768zM30.128 65.025H16.29a1.384 1.384 0 1 1 0-2.768h13.837a1.384 1.384 0 0 1 .001 2.768zM84.094 65.025H67.489a1.384 1.384 0 1 1 0-2.768h16.605a1.384 1.384 0 1 1 0 2.768zM32.895 77.479h-9.686a1.384 1.384 0 1 1 0-2.768h9.686a1.384 1.384 0 1 1 0 2.768z"></path><g><path d="M75.791 77.479H60.57a1.384 1.384 0 1 1 0-2.768h15.221a1.384 1.384 0 1 1 0 2.768z"></path></g></g><!----></svg>